<?xml version="1.0" standalone="no"?>
<!DOCTYPE svg PUBLIC "-//W3C//DTD SVG 20010904//EN"
 "http://www.w3.org/TR/2001/REC-SVG-20010904/DTD/svg10.dtd">
<svg version="1.0" xmlns="http://www.w3.org/2000/svg"
 width="1980.000000pt" height="1200.000000pt" viewBox="0 0 1980.000000 1200.000000"
 preserveAspectRatio="xMidYMid meet">

<g transform="translate(0.000000,1200.000000) scale(0.100000,-0.100000)"
fill="#000000" stroke="none">
<path d="M0 6000 l0 -6000 2981 2 2981 3 54 90 c29 50 60 104 68 120 9 17 26
47 38 67 13 20 68 114 123 208 55 94 110 188 122 208 12 20 30 51 40 69 10 18
54 93 98 168 124 211 116 184 94 295 -35 178 -59 295 -79 390 -11 52 -27 131
-36 175 -8 44 -17 89 -21 100 -8 27 -40 189 -59 300 -8 50 -19 99 -23 110 -5
11 -14 49 -19 83 -12 70 -25 92 -53 92 -28 0 -32 17 -5 24 22 5 23 8 14 48 -5
24 -16 81 -25 128 -18 98 -26 112 -59 104 -14 -4 -62 -1 -107 6 -150 23 -250
71 -342 165 -33 34 -64 68 -70 76 -49 71 -95 219 -95 304 0 69 34 196 71 265
47 88 144 180 242 229 45 23 89 41 98 41 15 0 15 5 7 38 -5 20 -16 71 -24 112
-23 125 -33 148 -68 156 l-31 7 27 9 c14 5 29 15 31 22 3 8 -4 58 -15 112 -32
152 -33 203 -8 281 13 38 29 79 36 93 13 25 121 251 164 345 13 28 47 100 75
160 29 61 70 146 90 190 20 44 56 121 80 170 23 50 61 128 83 175 22 47 60
128 85 180 24 52 64 136 87 185 140 298 146 306 310 385 36 18 84 40 108 51
23 10 61 28 85 39 24 11 49 20 55 20 7 0 34 10 60 23 26 13 80 39 120 59 l72
35 0 -372 c0 -421 -3 -463 -34 -475 -26 -10 -40 -37 -61 -115 -8 -33 -24 -91
-35 -130 -11 -38 -29 -99 -39 -135 -27 -93 -58 -204 -82 -285 -11 -38 -23 -85
-28 -102 -6 -21 -4 -60 5 -110 8 -43 21 -116 29 -163 8 -47 21 -121 29 -165 9
-44 15 -90 16 -103 0 -23 12 -43 83 -137 54 -71 62 -83 111 -150 25 -33 52
-68 61 -79 16 -17 17 -41 10 -282 -6 -228 -5 -264 8 -264 22 0 27 117 27 591
0 228 2 435 5 460 3 24 -1 98 -10 164 -8 66 -22 183 -30 260 -8 77 -20 160
-26 185 -15 66 -23 740 -10 885 24 268 53 361 135 431 83 71 209 93 314 55 57
-21 135 -79 153 -114 24 -44 32 -45 50 -8 10 20 59 122 109 226 177 365 200
415 200 435 0 11 9 28 20 37 11 10 20 22 20 29 0 6 36 82 80 168 44 87 80 162
80 166 0 5 34 80 76 167 192 403 213 435 295 447 30 4 60 2 87 -7 45 -16 142
-85 142 -102 0 -5 5 -2 11 8 16 27 28 20 35 -20 8 -46 25 -80 55 -114 13 -14
49 -54 79 -89 30 -35 93 -107 140 -160 47 -53 110 -125 140 -160 30 -35 62
-71 70 -80 8 -8 40 -45 70 -80 30 -35 62 -72 70 -80 8 -9 38 -43 65 -75 28
-32 84 -97 125 -145 41 -47 98 -112 125 -145 28 -32 57 -66 65 -75 8 -8 40
-45 70 -80 30 -35 62 -72 70 -80 8 -9 38 -43 65 -75 55 -65 112 -130 135 -155
25 -27 92 -104 141 -161 163 -191 246 -286 259 -296 11 -9 102 -12 353 -13
l337 0 0 -75 0 -76 -376 3 -375 3 -62 65 c-34 36 -84 92 -112 125 -27 33 -52
62 -55 65 -4 3 -33 37 -65 75 -32 39 -64 75 -69 81 -6 6 -36 40 -66 74 -30 35
-62 71 -70 80 -8 8 -30 34 -49 55 -63 74 -129 150 -242 281 -63 71 -136 157
-164 189 -27 32 -57 66 -65 75 -8 8 -40 45 -70 80 -30 35 -62 72 -70 80 -8 9
-37 43 -65 75 -27 32 -71 81 -96 109 -25 28 -66 76 -90 106 -25 30 -60 73 -79
94 -121 136 -144 163 -157 184 -9 12 -20 22 -25 22 -13 0 -32 20 -49 52 -8 14
-47 62 -88 107 -64 70 -79 81 -108 81 -19 0 -40 -8 -51 -20 -20 -22 -25 -31
-67 -125 -25 -55 -78 -164 -118 -240 -8 -16 -36 -75 -62 -130 -25 -55 -50
-107 -55 -115 -28 -45 -52 -110 -55 -151 -2 -33 -10 -53 -29 -72 -14 -14 -26
-33 -26 -42 0 -8 -4 -15 -10 -15 -5 0 -10 -6 -10 -13 0 -7 -17 -49 -39 -92
-21 -44 -53 -111 -71 -150 -56 -122 -111 -236 -171 -360 -33 -66 -59 -126 -59
-133 0 -7 -4 -12 -10 -12 -5 0 -10 -7 -10 -15 0 -40 -34 6 -55 73 -3 12 -11
22 -17 22 -6 0 -7 -7 -3 -17 21 -48 79 -276 106 -418 37 -190 95 -614 124
-905 18 -188 35 -311 45 -340 5 -14 20 -56 35 -95 14 -38 33 -92 41 -120 9
-27 20 -54 24 -60 4 -5 11 -26 15 -45 4 -19 11 -39 15 -45 4 -5 15 -32 23 -60
9 -27 28 -81 42 -120 73 -198 99 -276 123 -380 9 -38 19 -72 23 -75 3 -3 12
-45 19 -95 8 -49 17 -92 21 -95 8 -6 29 -215 29 -298 0 -35 4 -62 10 -62 13 0
13 -237 0 -245 -5 -3 -10 -34 -10 -68 0 -81 -21 -291 -30 -297 -4 -3 -13 -43
-19 -90 -7 -47 -16 -89 -21 -95 -4 -5 -13 -40 -21 -77 -7 -38 -16 -68 -19 -68
-4 0 -13 -27 -20 -60 -7 -33 -16 -60 -21 -60 -4 0 -13 -25 -20 -55 -7 -30 -15
-55 -19 -55 -4 0 -10 -13 -13 -30 -4 -16 -16 -50 -27 -74 -11 -25 -20 -50 -20
-56 0 -6 -9 -30 -19 -53 -11 -23 -22 -59 -26 -80 -4 -20 -11 -37 -15 -37 -5 0
-14 -25 -21 -55 -7 -30 -15 -55 -19 -55 -4 0 -10 -13 -13 -30 -4 -16 -16 -50
-27 -74 -11 -25 -20 -50 -20 -56 0 -6 -9 -30 -19 -53 -11 -23 -22 -59 -26 -79
-4 -21 -11 -38 -15 -38 -5 0 -14 -25 -21 -55 -7 -30 -15 -55 -19 -55 -4 0 -13
-21 -20 -48 -7 -26 -17 -53 -23 -59 -6 -9 -69 -13 -226 -16 l-216 -2 218 -3
219 -2 -6 -27 c-3 -16 -8 -59 -12 -98 -3 -38 -10 -74 -14 -80 -4 -5 -13 -64
-20 -130 -7 -66 -16 -124 -20 -130 -4 -5 -14 -65 -21 -132 -7 -68 -16 -123
-20 -123 -3 0 -12 -56 -19 -126 -8 -69 -17 -127 -22 -130 -4 -3 -8 -23 -8 -45
l0 -39 5845 0 5845 0 0 6000 0 6000 -9900 0 -9900 0 0 -6000z m14572 5204 c37
-19 60 -40 77 -72 16 -31 28 -2860 12 -2918 -13 -50 -64 -99 -115 -113 -27 -7
-452 -11 -1333 -11 -1100 0 -1293 2 -1293 14 0 7 10 16 23 20 12 3 597 6 1301
6 1223 -1 1280 0 1314 18 75 39 69 -77 77 1499 6 1406 6 1412 -14 1451 -11 22
-35 51 -53 64 l-33 23 -1936 -2 c-2148 -1 -1976 4 -2019 -66 -17 -27 -20 -51
-20 -149 0 -115 -9 -168 -30 -168 -6 0 -10 53 -10 148 0 120 3 153 18 182 18
37 82 86 122 94 14 2 892 3 1952 1 1789 -3 1929 -5 1960 -21z m-2504 -496 c39
-6 72 -14 72 -18 0 -4 17 -10 38 -14 20 -3 49 -12 64 -20 14 -8 42 -19 62 -26
20 -6 36 -15 36 -20 0 -4 11 -11 24 -14 14 -3 31 -12 38 -19 7 -6 36 -28 63
-47 103 -72 174 -144 245 -250 8 -12 22 -32 31 -44 8 -11 30 -52 48 -91 18
-38 36 -77 40 -85 4 -8 13 -40 20 -70 7 -30 18 -66 24 -79 16 -33 17 -422 1
-442 -7 -8 -15 -34 -19 -58 -7 -41 -29 -98 -78 -201 -12 -25 -25 -47 -28 -50
-3 -3 -12 -16 -19 -29 -15 -28 -12 -25 -83 -111 -61 -73 -116 -124 -185 -172
-26 -18 -49 -36 -52 -39 -3 -3 -20 -11 -37 -18 -18 -8 -33 -17 -33 -21 0 -4
-20 -13 -45 -20 -25 -7 -45 -16 -45 -20 0 -5 -24 -14 -52 -20 -29 -7 -58 -16
-64 -21 -49 -39 -564 -36 -564 3 0 5 -5 6 -10 3 -6 -4 -16 -2 -23 3 -7 5 -25
12 -41 16 -36 9 -174 77 -218 108 -117 82 -147 112 -287 284 -16 19 -101 184
-101 195 0 6 -9 29 -19 53 -11 23 -23 67 -27 97 -4 30 -12 57 -17 61 -6 4 -10
69 -10 170 0 144 3 175 27 263 76 283 271 535 512 658 78 40 136 64 174 72 19
4 40 11 45 15 6 5 46 13 90 19 44 6 94 13 110 15 44 6 209 -3 293 -16z m-1508
-1419 l5 -1079 33 -32 32 -33 548 -6 c301 -3 557 -9 569 -13 21 -8 21 -8 2
-27 -18 -18 -41 -19 -554 -19 -520 0 -537 1 -576 20 -22 12 -49 30 -61 42 -48
48 -48 43 -48 1130 0 616 4 1025 9 1036 6 9 13 30 16 46 3 15 9 25 13 21 4 -4
9 -492 12 -1086z m2804 965 c9 -8 16 -31 16 -49 0 -18 -7 -41 -16 -49 -18 -18
-66 -21 -95 -6 -24 14 -26 76 -2 102 20 22 76 24 97 2z m0 -310 c20 -19 21
-74 2 -99 -18 -25 -84 -24 -103 1 -18 24 -16 79 3 98 8 9 31 16 49 16 18 0 41
-7 49 -16z m-5895 -688 c51 -27 51 -31 51 -559 0 -473 -1 -493 -20 -524 -16
-27 -26 -33 -53 -33 -18 0 -43 7 -55 16 l-22 15 0 528 c0 490 1 529 18 543 14
13 32 23 50 27 2 1 15 -5 31 -13z m-1249 -296 l25 -19 3 -374 c3 -367 2 -374
-18 -400 -25 -32 -82 -37 -112 -10 -17 15 -18 41 -18 396 0 377 0 381 22 404
26 28 64 29 98 3z m637 -202 c23 -21 23 -22 23 -300 0 -265 -1 -279 -20 -298
-12 -12 -33 -20 -55 -20 -22 0 -43 8 -55 20 -19 19 -20 33 -20 297 0 270 0
277 22 300 28 30 74 30 105 1z m-1270 -30 c23 -21 23 -22 23 -285 0 -250 -1
-264 -20 -283 -27 -27 -83 -27 -110 2 -19 21 -20 34 -20 278 l0 257 25 27 c30
32 70 34 102 4z m-1267 -245 c20 -26 21 -37 18 -171 -3 -160 -9 -172 -73 -172
-63 0 -70 14 -73 160 -2 73 -1 143 2 155 15 60 88 76 126 28z m3814 5 c13 -18
16 -52 16 -163 0 -165 -7 -185 -69 -185 -70 0 -76 11 -79 160 -4 143 0 170 24
194 24 25 90 21 108 -6z m-3182 -75 c15 -14 18 -32 18 -129 0 -130 -7 -144
-71 -144 -34 0 -42 5 -60 33 -17 27 -19 46 -17 117 4 108 21 140 75 140 20 0
45 -7 55 -17z m3632 -584 c3 -17 3 -35 0 -40 -3 -5 -1003 -9 -2415 -9 l-2409
0 0 40 0 40 2409 0 2409 0 6 -31z m3156 -2308 c0 -16 -60 -21 -237 -21 -140 0
-180 -3 -206 -16 -48 -24 -76 -54 -98 -103 -18 -42 -19 -72 -19 -776 0 -404 3
-740 6 -749 14 -38 291 -8 419 45 102 42 199 112 300 215 55 56 105 108 110
116 6 7 33 41 60 73 28 33 76 92 107 130 84 104 233 246 316 299 89 58 182 97
284 122 46 11 78 24 78 32 0 6 5 12 10 12 6 0 10 -6 10 -12 0 -10 34 -13 133
-14 128 -2 239 -21 332 -57 52 -21 209 -99 250 -126 46 -29 198 -144 224 -169
10 -9 44 -39 76 -67 32 -27 63 -55 69 -60 179 -171 430 -374 506 -408 8 -4 38
-20 65 -36 64 -38 73 -38 78 2 4 29 4 28 3 -5 l-1 -37 65 -21 c153 -48 171
-50 768 -50 l562 0 0 -51 0 -51 -602 5 -603 4 -87 25 c-47 15 -89 23 -93 20
-4 -4 -11 1 -16 10 -5 9 -22 19 -37 23 -60 13 -220 108 -342 204 -66 52 -240
201 -281 241 -91 89 -372 320 -388 320 -5 0 -16 6 -24 14 -19 20 -157 91 -204
106 -21 7 -42 16 -48 20 -25 19 -234 51 -315 48 l-85 -3 -3 -37 c-4 -46 -22
-51 -22 -7 l0 32 -50 -7 c-53 -7 -183 -55 -203 -75 -6 -6 -15 -11 -19 -11 -31
0 -298 -242 -298 -269 0 -5 -4 -11 -9 -13 -7 -2 -59 -64 -171 -202 -8 -10 -67
-71 -130 -136 -143 -145 -256 -221 -400 -269 -84 -28 -112 -33 -259 -40 l-136
-6 -5 -78 c-3 -42 -9 -78 -15 -80 -15 -3 -19 1731 -5 1800 13 60 64 119 121
139 40 15 459 19 459 5z m3270 -6 c0 -8 -9 -15 -20 -15 -11 0 -20 7 -20 15 0
8 9 15 20 15 11 0 20 -7 20 -15z m-2130 -15 c0 -11 -7 -20 -15 -20 -8 0 -15 9
-15 20 0 11 7 20 15 20 8 0 15 -9 15 -20z m1743 14 c8 -8 -3 -34 -14 -34 -5 0
-9 9 -9 20 0 19 11 26 23 14z m-1743 -129 c0 -19 -4 -35 -10 -35 -5 0 -10 16
-10 35 0 19 5 35 10 35 6 0 10 -16 10 -35z m1737 -17 c-2 -13 -4 -5 -4 17 -1
22 1 32 4 23 2 -10 2 -28 0 -40z m-1737 -118 c0 -16 -4 -30 -10 -30 -5 0 -10
14 -10 30 0 17 5 30 10 30 6 0 10 -13 10 -30z m1737 -17 c-3 -10 -5 -2 -5 17
0 19 2 27 5 18 2 -10 2 -26 0 -35z m-1737 -103 c0 -16 -4 -30 -10 -30 -5 0
-10 14 -10 30 0 17 5 30 10 30 6 0 10 -13 10 -30z m1737 -17 c-3 -10 -5 -2 -5
17 0 19 2 27 5 18 2 -10 2 -26 0 -35z m-1737 -118 c0 -19 -4 -35 -10 -35 -5 0
-10 16 -10 35 0 19 5 35 10 35 6 0 10 -16 10 -35z m1737 -17 c-2 -13 -4 -5 -4
17 -1 22 1 32 4 23 2 -10 2 -28 0 -40z m0 -130 c-2 -13 -4 -5 -4 17 -1 22 1
32 4 23 2 -10 2 -28 0 -40z m0 -135 c-3 -10 -5 -2 -5 17 0 19 2 27 5 18 2 -10
2 -26 0 -35z m-1737 -103 c0 -16 -4 -30 -10 -30 -5 0 -10 14 -10 30 0 17 5 30
10 30 6 0 10 -13 10 -30z m1737 -17 c-3 -10 -5 -2 -5 17 0 19 2 27 5 18 2 -10
2 -26 0 -35z m-1737 -118 c0 -19 -4 -35 -10 -35 -5 0 -10 16 -10 35 0 19 5 35
10 35 6 0 10 -16 10 -35z m1737 -17 c-2 -13 -4 -5 -4 17 -1 22 1 32 4 23 2
-10 2 -28 0 -40z m-1737 -113 c0 -19 -4 -35 -10 -35 -5 0 -10 16 -10 35 0 19
5 35 10 35 6 0 10 -16 10 -35z m1737 -17 c-2 -13 -4 -5 -4 17 -1 22 1 32 4 23
2 -10 2 -28 0 -40z m-1737 -118 c0 -16 -4 -30 -10 -30 -5 0 -10 14 -10 30 0
17 5 30 10 30 6 0 10 -13 10 -30z m1737 -17 c-3 -10 -5 -2 -5 17 0 19 2 27 5
18 2 -10 2 -26 0 -35z m-1737 -108 c0 -14 -4 -25 -10 -25 -5 0 -10 11 -10 25
0 14 5 25 10 25 6 0 10 -11 10 -25z m1737 -12 c-3 -10 -5 -4 -5 12 0 17 2 24
5 18 2 -7 2 -21 0 -30z m-1737 -118 c0 -19 -4 -35 -10 -35 -5 0 -10 16 -10 35
0 19 5 35 10 35 6 0 10 -16 10 -35z m-8099 -75 c75 -12 139 -37 204 -81 41
-28 59 -44 129 -121 48 -53 94 -167 106 -261 6 -48 8 -92 5 -96 -2 -5 -9 -41
-15 -82 -6 -40 -14 -77 -19 -83 -4 -6 -14 -27 -21 -46 -17 -44 -58 -105 -102
-150 -37 -38 -102 -90 -114 -90 -4 0 -15 -6 -23 -13 -9 -8 -45 -24 -81 -37
-53 -20 -85 -24 -175 -24 -117 -1 -181 16 -285 73 -50 28 -180 154 -180 175 0
8 -6 19 -14 25 -8 7 -17 24 -21 39 -4 15 -14 43 -23 62 -26 53 -24 277 2 345
25 63 66 138 83 148 7 4 13 13 13 18 0 6 12 23 28 38 81 80 190 138 287 153
39 5 79 14 90 18 11 5 29 7 40 5 11 -2 50 -9 86 -15z m8099 -55 c0 -19 -4 -35
-10 -35 -5 0 -10 16 -10 35 0 19 5 35 10 35 6 0 10 -16 10 -35z m0 -135 c0
-16 -4 -30 -10 -30 -5 0 -10 14 -10 30 0 17 5 30 10 30 6 0 10 -13 10 -30z
m1737 -17 c-3 -10 -5 -2 -5 17 0 19 2 27 5 18 2 -10 2 -26 0 -35z m-1737 -108
c0 -14 -4 -25 -10 -25 -5 0 -10 11 -10 25 0 14 5 25 10 25 6 0 10 -11 10 -25z
m1737 -12 c-3 -10 -5 -4 -5 12 0 17 2 24 5 18 2 -7 2 -21 0 -30z m-1737 -118
c0 -19 -4 -35 -10 -35 -5 0 -10 16 -10 35 0 19 5 35 10 35 6 0 10 -16 10 -35z
m1737 -17 c-2 -13 -4 -5 -4 17 -1 22 1 32 4 23 2 -10 2 -28 0 -40z m-1737 -98
c0 -11 -7 -20 -15 -20 -15 0 -21 21 -8 33 12 13 23 7 23 -13z m1740 -14 c-14
-14 -24 0 -16 21 6 15 8 15 16 3 6 -9 5 -19 0 -24z m-2942 -13 c-10 -2 -26 -2
-35 0 -10 3 -2 5 17 5 19 0 27 -2 18 -5z m-1110 -461 c-3 -121 -4 -127 -24
-130 -44 -6 -54 21 -54 138 0 100 2 110 22 124 15 11 26 12 40 5 17 -9 18 -21
16 -137z"/>
<path d="M11715 10600 c-142 -26 -249 -69 -374 -150 -103 -68 -226 -202 -282
-310 -19 -36 -37 -67 -40 -70 -4 -3 -12 -25 -19 -50 -7 -25 -16 -49 -20 -55
-4 -5 -18 -68 -30 -139 -16 -93 -20 -143 -15 -180 5 -28 10 -64 11 -81 2 -16
11 -59 19 -95 9 -36 17 -71 17 -77 1 -7 5 -13 9 -13 4 0 11 -14 14 -32 21 -92
161 -281 285 -382 64 -52 204 -127 265 -142 17 -4 35 -10 41 -15 15 -12 189
-39 249 -39 67 0 264 27 279 38 6 5 29 14 52 20 22 7 63 24 90 38 27 15 60 33
74 40 52 28 177 139 225 201 28 35 55 69 60 76 6 6 17 27 24 45 7 17 17 32 22
32 5 0 9 5 9 12 0 6 11 34 24 62 13 28 27 69 32 91 4 22 12 43 18 47 15 10 15
420 0 439 -6 8 -17 36 -23 64 -7 27 -16 54 -20 60 -5 5 -14 27 -20 48 -7 20
-16 37 -19 37 -4 0 -13 15 -21 33 -8 17 -17 34 -20 37 -3 3 -18 23 -33 45 -54
78 -171 186 -263 242 -52 32 -138 72 -168 78 -17 4 -34 11 -37 15 -6 9 -186
40 -265 45 -27 2 -95 -5 -150 -15z m273 -349 c9 -5 38 -15 65 -22 26 -6 47
-15 47 -19 0 -4 10 -10 23 -14 30 -7 60 -30 132 -101 126 -125 166 -222 167
-400 0 -90 -18 -215 -32 -215 -4 0 -12 -18 -19 -40 -6 -22 -16 -40 -20 -40 -5
0 -14 -12 -20 -27 -10 -24 -103 -120 -154 -160 -27 -21 -127 -64 -163 -70 -19
-3 -37 -10 -40 -14 -3 -5 -53 -9 -112 -9 -86 0 -122 5 -186 25 -207 67 -360
248 -388 460 -30 235 62 442 255 568 94 62 173 84 310 86 64 0 125 -3 135 -8z"/>
<path d="M11737 10130 c-32 -10 -72 -27 -90 -37 -54 -30 -134 -101 -158 -141
-13 -20 -26 -39 -29 -42 -3 -3 -17 -34 -30 -70 -69 -187 6 -412 173 -523 93
-62 159 -82 262 -81 62 1 99 7 120 18 17 9 37 16 46 16 9 0 28 9 42 20 14 11
29 20 35 20 15 0 139 136 147 161 4 13 11 26 15 29 4 3 17 47 28 99 19 93 19
94 0 185 -11 50 -23 93 -27 96 -3 3 -12 18 -19 33 -33 76 -160 184 -238 203
-16 4 -34 11 -41 16 -6 5 -49 11 -95 13 -65 4 -95 1 -141 -15z"/>
<path d="M4575 3790 c-101 -21 -214 -96 -277 -184 -158 -223 -95 -518 143
-668 100 -63 257 -79 378 -38 39 14 71 28 71 32 0 5 7 8 15 8 8 0 43 27 78 59
44 42 75 82 103 137 39 76 39 78 38 184 -1 118 -19 183 -76 266 -67 100 -194
185 -293 198 -91 12 -142 13 -180 6z"/>
<path d="M5987 3760 c-93 -36 -182 -122 -236 -228 -52 -103 -49 -288 7 -401
31 -63 107 -145 171 -185 91 -58 228 -83 292 -53 l26 12 -17 75 c-19 83 -33
151 -60 285 -10 50 -28 135 -40 190 -11 55 -29 143 -39 195 -28 145 -25 141
-104 110z"/>
</g>
</svg>
